<svg xmlns="http://www.w3.org/2000/svg" width="376" height="54" viewBox="0 0 376 54"><g transform="translate(0 14) rotate(-8 20 20) scale(1)"><circle cx="20" cy="20" r="20" fill="#ff2056"/><circle cx="14" cy="20" r="3.8" fill="#4d0218"/><circle cx="26" cy="20" r="3.8" fill="#4d0218"/></g><g transform="translate(48 4) rotate(0 20 20) scale(1)"><circle cx="20" cy="20" r="20" fill="#efb100"/><rect x="10" y="15" width="7" height="11" rx="3.5" fill="#432004"/><rect x="23" y="15" width="7" height="11" rx="3.5" fill="#432004"/></g><g transform="translate(96 10) rotate(6 20 20) scale(1)"><circle cx="20" cy="20" r="20" fill="#ad46ff"/><path d="M10.5 21.5a3.5 3.5 0 0 1 7 0M22.5 21.5a3.5 3.5 0 0 1 7 0" fill="none" stroke="#3c0366" stroke-width="2.6" stroke-linecap="round"/></g><g transform="translate(144 0) rotate(-4 20 20) scale(1)"><circle cx="20" cy="20" r="20" fill="#00a6f4"/><rect x="10" y="15" width="7" height="11" rx="3.5" fill="#052f4a"/><rect x="23" y="15" width="7" height="11" rx="3.5" fill="#052f4a"/></g><g transform="translate(192 12) rotate(0 20 20) scale(1)"><circle cx="20" cy="20" r="20" fill="#00c951"/><rect x="10" y="15" width="7" height="11" rx="1.5" fill="#032e15"/><rect x="23" y="15" width="7" height="11" rx="1.5" fill="#032e15"/></g><g transform="translate(240 6) rotate(10 20 20) scale(1)"><circle cx="20" cy="20" r="20" fill="#ff6900"/><circle cx="14" cy="20" r="3.8" fill="#441306"/><circle cx="26" cy="20" r="3.8" fill="#441306"/></g><g transform="translate(288 2) rotate(0 20 20) scale(1)"><circle cx="20" cy="20" r="20" fill="#00b8db"/><path d="M10.5 21.5a3.5 3.5 0 0 1 7 0M22.5 21.5a3.5 3.5 0 0 1 7 0" fill="none" stroke="#053345" stroke-width="2.6" stroke-linecap="round"/></g><g transform="translate(336 13) rotate(-6 20 20) scale(1)"><circle cx="20" cy="20" r="20" fill="#00bba7"/><circle cx="14" cy="20" r="3.8" fill="#022f2e"/><circle cx="26" cy="20" r="3.8" fill="#022f2e"/></g></svg>
